# xmcd
#
# Track frame offsets:
#	150
#	17496
#	32820
#	52102
#	67391
#	83015
#	95193
#	111600
#	131687
#	147775
#	162406
#	177975
#	191483
#	204789
#	216471
#	228331
#	245931
#	258905
#
# Disc length: 3715 seconds
#
# Revision: 1
# Processed by: cddbd v1.5.2PL0 Copyright (c) Steve Scherf et al.
# Submitted via: audiograbber 1.83.01
#
DISCID=150e8112
DTITLE=Various Artist - CDX Volume 582 [October 28, 2013]
DYEAR=2013
DGENRE=Country
TTITLE0=Jerrod Niemann - Drink To That All Night
TTITLE1=Kacey Musgraves - Follow Your Arrow [Radio Edit]
TTITLE2=George Strait - I Got A Car [Radio Edit]
TTITLE3=Hannah Bethel - Medicine
TTITLE4=GB Leighton - Get Up
TTITLE5=Sherry Kennedy - Think Of Me 
TTITLE6=Doug Wayne - Almost Time For Christmas
TTITLE7=Charlie Monk - Andy and Opie Christmas
TTITLE8=Travis Denning - Ballad Of Rudolph 
TTITLE9=Paul Lovelace - Christmas Every Day With You
TTITLE10=Paul Parr - Christmas In The Desert
TTITLE11=Teea Goans - Christmas Time Is Here 
TTITLE12=Tyler Barham - Coal In Your Stocking This Year
TTITLE13=Steve Free - It's Christmas Day 
TTITLE14=Geezinslaws - Lighten Up, It's Christmas 
TTITLE15=Doug Wayne - That Star Still Shines 
TTITLE16=4 Sisters and A Cousin - White Christmas
TTITLE17=Timothy Craig - One Small Miracle 
EXTD=
EXTT0=
EXTT1=
EXTT2=
EXTT3=
EXTT4=
EXTT5=
EXTT6=
EXTT7=
EXTT8=
EXTT9=
EXTT10=
EXTT11=
EXTT12=
EXTT13=
EXTT14=
EXTT15=
EXTT16=
EXTT17=
PLAYORDER=
